<?xml version="1.0" encoding="utf-8"?>
<!-- Generator: Adobe Illustrator 20.1.0, SVG Export Plug-In . SVG Version: 6.00 Build 0)  -->
<svg version="1.1" id="Layer_1" xmlns="http://www.w3.org/2000/svg" xmlns:xlink="http://www.w3.org/1999/xlink" x="0px" y="0px"
	 viewBox="0 0 326.6 55" style="enable-background:new 0 0 326.6 55;" xml:space="preserve">
<style type="text/css">
	.st0{fill:none;stroke:#231F20;stroke-width:2;stroke-miterlimit:10;}
	.st1{fill:#231F20;}
</style>
<g>
	<path class="st0" d="M19.3,42.6c-2.1,0-4.1-0.4-5.9-1.1c-1.8-0.7-3.4-1.7-4.8-3s-2.4-2.9-3.2-4.7C4.5,32,4.1,30,4.1,27.7
		c0-2.2,0.4-4.2,1.2-6.1c0.8-1.8,1.9-3.4,3.2-4.7c1.4-1.3,3-2.3,4.8-3s3.8-1.1,5.9-1.1s4.1,0.4,5.9,1.1c1.8,0.7,3.4,1.7,4.8,3
		c1.4,1.3,2.4,2.9,3.2,4.7c0.8,1.8,1.2,3.8,1.2,6.1c0,2.2-0.4,4.2-1.2,6.1c-0.8,1.8-1.9,3.4-3.2,4.7c-1.4,1.3-3,2.3-4.8,3
		C23.3,42.2,21.4,42.6,19.3,42.6z"/>
	<path class="st0" d="M42.2,3.6h12c4.3,0,8.1,0.6,11.4,1.9c3.3,1.3,6,3,8.2,5.2s3.9,4.8,5,7.7s1.7,6,1.7,9.3c0,2.5-0.4,5.2-1.3,8
		c-0.8,2.8-2.3,5.4-4.3,7.8c-2,2.4-4.7,4.4-8.1,5.9c-3.4,1.6-7.6,2.3-12.6,2.3h-12L42.2,3.6L42.2,3.6z"/>
	<path class="st0" d="M101.9,19.5c-1-4.7-5.3-6.5-9.2-4.8C92,15,91.3,15.4,90.8,16c-0.5,0.5-0.9,1.2-1.2,1.9
		c-0.3,0.7-0.4,1.5-0.4,2.4s0.2,1.6,0.5,2.3c0.3,0.6,0.7,1.2,1.3,1.7c0.6,0.5,1.2,0.9,2,1.4c0.8,0.4,1.6,0.8,2.6,1.3
		c0.9,0.4,1.7,0.8,2.6,1.3s1.7,1,2.4,1.6c0.7,0.6,1.3,1.3,1.7,2.2c0.4,0.8,0.7,1.8,0.7,2.8c0,0.6-0.1,1.3-0.3,2.1
		c-0.2,0.8-0.6,1.5-1.2,2.1c-0.6,0.7-1.4,1.2-2.4,1.7c-1,0.4-2.3,0.7-3.9,0.7c-0.5,0-1.1,0-1.8-0.1c-0.7-0.1-1.3-0.3-2-0.6
		s-1.3-0.7-2-1.3c-0.6-0.6-1.2-1.3-1.6-2.3"/>
</g>
<g>
	<path class="st1" d="M137.1,26.4c0,2.3-0.6,4.1-1.7,5.4s-2.8,2-4.8,2c-2.1,0-3.7-0.6-4.9-1.9s-1.7-3.1-1.7-5.4s0.6-4.1,1.7-5.4
		s2.8-1.9,4.9-1.9s3.7,0.7,4.8,2S137.1,24.1,137.1,26.4z M125.7,26.4c0,1.9,0.4,3.4,1.2,4.4s2,1.5,3.6,1.5s2.8-0.5,3.6-1.5
		s1.2-2.5,1.2-4.4s-0.4-3.4-1.2-4.4s-2-1.5-3.6-1.5s-2.8,0.5-3.6,1.5S125.7,24.5,125.7,26.4z"/>
	<path class="st1" d="M152.8,33.6h-1.6l-2.9-9.6c-0.1-0.4-0.3-1-0.5-1.6s-0.3-1-0.3-1.2c-0.1,0.9-0.4,1.8-0.7,2.8l-2.8,9.5h-1.6
		l-3.8-14.3h1.8l2.3,8.8c0.3,1.2,0.5,2.4,0.7,3.4c0.2-1.2,0.4-2.4,0.8-3.5l2.6-8.7h1.8l2.7,8.8c0.3,1,0.6,2.1,0.8,3.4
		c0.1-0.9,0.4-2.1,0.7-3.4l2.2-8.8h1.8L152.8,33.6z"/>
	<path class="st1" d="M170,33.6h-1.9l-7.8-12h-0.1c0.1,1.4,0.2,2.7,0.2,3.9v8.1h-1.5V19.3h1.9l7.8,11.9h0.1c0-0.2,0-0.7-0.1-1.7
		s-0.1-1.6,0-2v-8.2h1.6v14.3H170z"/>
	<path class="st1" d="M190.5,26.3c0,2.4-0.6,4.2-1.9,5.4s-3.1,1.9-5.5,1.9h-4V19.3h4.4c2.2,0,3.9,0.6,5.2,1.8S190.5,24.1,190.5,26.3
		z M188.7,26.4c0-1.9-0.5-3.3-1.4-4.2s-2.3-1.4-4.2-1.4h-2.4v11.4h2c2,0,3.5-0.5,4.5-1.5S188.7,28.3,188.7,26.4z"/>
	<path class="st1" d="M201.6,33.6h-8V19.3h8v1.5h-6.3v4.6h5.9v1.5h-5.9v5.3h6.3V33.6z"/>
	<path class="st1" d="M212.8,29.8c0,1.3-0.5,2.2-1.4,2.9s-2.1,1.1-3.7,1.1c-1.7,0-3-0.2-3.9-0.7v-1.6c0.6,0.2,1.2,0.4,1.9,0.6
		s1.4,0.2,2.1,0.2c1.1,0,1.9-0.2,2.5-0.6s0.8-1,0.8-1.8c0-0.5-0.1-0.9-0.3-1.2c-0.2-0.3-0.5-0.6-1-0.9s-1.2-0.6-2.1-0.9
		c-1.3-0.5-2.3-1-2.8-1.7s-0.9-1.5-0.9-2.5c0-1.1,0.4-2,1.2-2.6s1.9-1,3.3-1c1.4,0,2.7,0.3,3.9,0.8l-0.5,1.4
		c-1.2-0.5-2.3-0.7-3.4-0.7c-0.9,0-1.6,0.2-2.1,0.6s-0.7,0.9-0.7,1.6c0,0.5,0.1,0.9,0.3,1.2s0.5,0.6,0.9,0.9s1.1,0.6,2,0.9
		c1.5,0.5,2.5,1.1,3.1,1.7S212.8,28.8,212.8,29.8z"/>
	<path class="st1" d="M215.8,33.6V19.3h1.7v14.3H215.8z"/>
	<path class="st1" d="M227.6,26.1h4.9V33c-0.8,0.2-1.5,0.4-2.3,0.5s-1.7,0.2-2.7,0.2c-2.2,0-3.8-0.6-5-1.9s-1.8-3.1-1.8-5.4
		c0-1.5,0.3-2.8,0.9-3.9s1.5-2,2.6-2.6s2.4-0.9,3.9-0.9s2.9,0.3,4.3,0.8l-0.6,1.5c-1.3-0.5-2.5-0.8-3.7-0.8c-1.7,0-3.1,0.5-4.1,1.6
		s-1.5,2.5-1.5,4.3c0,1.9,0.5,3.4,1.4,4.4s2.3,1.5,4.1,1.5c1,0,2-0.1,2.9-0.3v-4.4h-3.2L227.6,26.1L227.6,26.1z"/>
	<path class="st1" d="M247,33.6h-1.9l-7.8-12h-0.1c0.1,1.4,0.2,2.7,0.2,3.9v8.1h-1.5V19.3h1.9l7.8,11.9h0.1c0-0.2,0-0.7-0.1-1.7
		s-0.1-1.6,0-2v-8.2h1.6v14.3H247z"/>
	<path class="st1" d="M264.2,29.8c0,1.3-0.5,2.2-1.4,2.9s-2.1,1.1-3.7,1.1c-1.7,0-3-0.2-3.9-0.7v-1.6c0.6,0.2,1.2,0.4,1.9,0.6
		s1.4,0.2,2.1,0.2c1.1,0,1.9-0.2,2.5-0.6s0.8-1,0.8-1.8c0-0.5-0.1-0.9-0.3-1.2c-0.2-0.3-0.5-0.6-1-0.9s-1.2-0.6-2.1-0.9
		c-1.3-0.5-2.3-1-2.8-1.7s-0.9-1.5-0.9-2.5c0-1.1,0.4-2,1.2-2.6s1.9-1,3.3-1s2.7,0.3,3.9,0.8l-0.5,1.4c-1.2-0.5-2.3-0.7-3.4-0.7
		c-0.9,0-1.6,0.2-2.1,0.6s-0.7,0.9-0.7,1.6c0,0.5,0.1,0.9,0.3,1.2s0.5,0.6,0.9,0.9s1.1,0.6,2,0.9c1.5,0.5,2.5,1.1,3.1,1.7
		S264.2,28.8,264.2,29.8z"/>
	<path class="st1" d="M271.5,33.6h-1.7V20.8h-4.5v-1.5H276v1.5h-4.5V33.6z"/>
	<path class="st1" d="M289,19.3v9.2c0,1.6-0.5,2.9-1.5,3.8c-1,0.9-2.3,1.4-4.1,1.4s-3-0.5-4-1.4s-1.4-2.2-1.4-3.9v-9.2h1.7v9.3
		c0,1.2,0.3,2.1,1,2.7s1.6,1,2.9,1c1.2,0,2.1-0.3,2.8-1s1-1.6,1-2.8v-9.3h1.6V19.3z"/>
	<path class="st1" d="M304.2,26.3c0,2.4-0.6,4.2-1.9,5.4s-3.1,1.9-5.5,1.9h-4V19.3h4.4c2.2,0,3.9,0.6,5.2,1.8S304.2,24.1,304.2,26.3
		z M302.4,26.4c0-1.9-0.5-3.3-1.4-4.2s-2.3-1.4-4.2-1.4h-2.4v11.4h2c2,0,3.5-0.5,4.5-1.5S302.4,28.3,302.4,26.4z"/>
	<path class="st1" d="M307.3,33.6V19.3h1.7v14.3H307.3z"/>
	<path class="st1" d="M325.3,26.4c0,2.3-0.6,4.1-1.7,5.4s-2.8,2-4.8,2c-2.1,0-3.7-0.6-4.9-1.9s-1.7-3.1-1.7-5.4s0.6-4.1,1.7-5.4
		s2.8-1.9,4.9-1.9s3.7,0.7,4.8,2S325.3,24.1,325.3,26.4z M313.9,26.4c0,1.9,0.4,3.4,1.2,4.4s2,1.5,3.6,1.5s2.8-0.5,3.6-1.5
		s1.2-2.5,1.2-4.4s-0.4-3.4-1.2-4.4s-2-1.5-3.6-1.5s-2.8,0.5-3.6,1.5S313.9,24.5,313.9,26.4z"/>
</g>
</svg>
